<svg width="43" height="47" xmlns="http://www.w3.org/2000/svg">
    <defs>
        <linearGradient y2="0.617553" x2="-0.061169" y1="0.250319" x1="0.999116" id="paint0_linear">
            <stop stop-color="#C200FB"/>
            <stop stop-opacity="0.75" stop-color="#3772FF" offset="0.375"/>
            <stop stop-opacity="0.05" stop-color="#5AC4BE" offset="0.901042"/>
        </linearGradient>
    </defs>
    <g>
        <rect fill="none" id="canvas_background" height="49" width="45" y="-1" x="-1"/>
    </g>
    <g>
        <path id="svg_1" fill="#F1F1F2" d="m117.026,354l0,-11.636l6.978,0l0,1.25l-5.569,0l0,3.931l5.046,0l0,1.25l-5.046,0l0,5.205l-1.409,0zm9.209,0l0,-8.727l1.341,0l0,8.727l-1.341,0zm0.682,-10.182c-0.261,0 -0.487,-0.089 -0.676,-0.267c-0.186,-0.178 -0.279,-0.392 -0.279,-0.642c0,-0.25 0.093,-0.464 0.279,-0.642c0.189,-0.178 0.415,-0.267 0.676,-0.267c0.261,0 0.485,0.089 0.67,0.267c0.19,0.178 0.284,0.392 0.284,0.642c0,0.25 -0.094,0.464 -0.284,0.642c-0.185,0.178 -0.409,0.267 -0.67,0.267zm3.115,10.182l0,-8.727l1.295,0l0,1.318l0.091,0c0.159,-0.432 0.447,-0.782 0.864,-1.051c0.417,-0.269 0.886,-0.404 1.409,-0.404c0.099,0 0.222,0.002 0.369,0.006c0.148,0.004 0.26,0.01 0.336,0.017l0,1.364c-0.046,-0.012 -0.15,-0.029 -0.313,-0.051c-0.159,-0.027 -0.328,-0.04 -0.506,-0.04c-0.424,0 -0.803,0.089 -1.136,0.267c-0.329,0.174 -0.591,0.417 -0.784,0.727c-0.189,0.307 -0.284,0.657 -0.284,1.051l0,5.523l-1.341,0zm12.135,-6.773l-1.205,0.341c-0.075,-0.201 -0.187,-0.396 -0.335,-0.585c-0.144,-0.193 -0.341,-0.352 -0.591,-0.477c-0.25,-0.125 -0.57,-0.188 -0.96,-0.188c-0.534,0 -0.979,0.123 -1.335,0.37c-0.353,0.242 -0.529,0.551 -0.529,0.926c0,0.333 0.122,0.596 0.364,0.789c0.242,0.194 0.621,0.355 1.136,0.483l1.296,0.319c0.78,0.189 1.362,0.479 1.744,0.869c0.383,0.386 0.574,0.884 0.574,1.494c0,0.5 -0.144,0.947 -0.432,1.341c-0.284,0.394 -0.682,0.705 -1.193,0.932c-0.511,0.227 -1.106,0.341 -1.784,0.341c-0.89,0 -1.627,-0.193 -2.21,-0.58c-0.584,-0.386 -0.953,-0.95 -1.108,-1.693l1.272,-0.318c0.122,0.47 0.351,0.822 0.688,1.057c0.341,0.235 0.786,0.352 1.335,0.352c0.625,0 1.121,-0.133 1.489,-0.398c0.371,-0.269 0.557,-0.591 0.557,-0.966c0,-0.303 -0.106,-0.556 -0.319,-0.761c-0.212,-0.208 -0.537,-0.364 -0.977,-0.466l-1.454,-0.341c-0.8,-0.189 -1.387,-0.483 -1.762,-0.88c-0.371,-0.402 -0.557,-0.904 -0.557,-1.506c0,-0.493 0.139,-0.928 0.415,-1.307c0.281,-0.379 0.661,-0.676 1.142,-0.892c0.485,-0.216 1.034,-0.324 1.648,-0.324c0.864,0 1.542,0.189 2.034,0.568c0.496,0.379 0.849,0.879 1.057,1.5zm5.973,-1.954l0,1.136l-4.523,0l0,-1.136l4.523,0zm-3.205,-2.091l1.341,0l0,8.318c0,0.379 0.055,0.663 0.165,0.852c0.114,0.186 0.258,0.311 0.432,0.375c0.178,0.061 0.365,0.091 0.562,0.091c0.148,0 0.269,-0.007 0.364,-0.023c0.095,-0.018 0.17,-0.034 0.227,-0.045l0.273,1.205c-0.091,0.034 -0.218,0.068 -0.381,0.102c-0.163,0.038 -0.369,0.057 -0.619,0.057c-0.379,0 -0.75,-0.082 -1.114,-0.245c-0.359,-0.163 -0.659,-0.411 -0.897,-0.744c-0.235,-0.333 -0.353,-0.754 -0.353,-1.261l0,-8.682zm13.517,2.091l0,1.136l-4.522,0l0,-1.136l4.522,0zm-3.204,-2.091l1.341,0l0,8.318c0,0.379 0.055,0.663 0.165,0.852c0.113,0.186 0.257,0.311 0.431,0.375c0.178,0.061 0.366,0.091 0.563,0.091c0.148,0 0.269,-0.007 0.364,-0.023c0.094,-0.018 0.17,-0.034 0.227,-0.045l0.273,1.205c-0.091,0.034 -0.218,0.068 -0.381,0.102c-0.163,0.038 -0.369,0.057 -0.619,0.057c-0.379,0 -0.75,-0.082 -1.114,-0.245c-0.36,-0.163 -0.659,-0.411 -0.898,-0.744c-0.235,-0.333 -0.352,-0.754 -0.352,-1.261l0,-8.682zm5.221,10.818l0,-8.727l1.341,0l0,8.727l-1.341,0zm0.682,-10.182c-0.261,0 -0.486,-0.089 -0.676,-0.267c-0.185,-0.178 -0.278,-0.392 -0.278,-0.642c0,-0.25 0.093,-0.464 0.278,-0.642c0.19,-0.178 0.415,-0.267 0.676,-0.267c0.262,0 0.485,0.089 0.671,0.267c0.189,0.178 0.284,0.392 0.284,0.642c0,0.25 -0.095,0.464 -0.284,0.642c-0.186,0.178 -0.409,0.267 -0.671,0.267zm3.115,10.182l0,-8.727l1.296,0l0,1.363l0.113,0c0.182,-0.466 0.476,-0.827 0.881,-1.085c0.405,-0.261 0.892,-0.392 1.46,-0.392c0.576,0 1.055,0.131 1.438,0.392c0.386,0.258 0.687,0.619 0.903,1.085l0.091,0c0.224,-0.45 0.559,-0.808 1.006,-1.074c0.447,-0.268 0.983,-0.403 1.608,-0.403c0.78,0 1.418,0.244 1.915,0.733c0.496,0.485 0.744,1.241 0.744,2.267l0,5.841l-1.341,0l0,-5.841c0,-0.644 -0.176,-1.104 -0.528,-1.381c-0.353,-0.276 -0.767,-0.414 -1.245,-0.414c-0.613,0 -1.089,0.185 -1.426,0.556c-0.337,0.368 -0.506,0.834 -0.506,1.398l0,5.682l-1.363,0l0,-5.977c0,-0.496 -0.161,-0.896 -0.483,-1.199c-0.322,-0.307 -0.737,-0.46 -1.244,-0.46c-0.349,0 -0.675,0.092 -0.978,0.278c-0.299,0.186 -0.541,0.443 -0.727,0.773c-0.182,0.326 -0.273,0.702 -0.273,1.13l0,5.455l-1.341,0zm17.566,0.182c-0.841,0 -1.567,-0.186 -2.176,-0.557c-0.607,-0.375 -1.074,-0.898 -1.404,-1.568c-0.326,-0.674 -0.489,-1.459 -0.489,-2.352c0,-0.894 0.163,-1.682 0.489,-2.364c0.33,-0.686 0.788,-1.22 1.375,-1.602c0.591,-0.387 1.28,-0.58 2.068,-0.58c0.455,0 0.904,0.076 1.347,0.227c0.443,0.152 0.846,0.398 1.21,0.739c0.364,0.337 0.654,0.784 0.869,1.341c0.216,0.557 0.324,1.242 0.324,2.057l0,0.568l-6.727,0l0,-1.159l5.364,0c0,-0.493 -0.099,-0.932 -0.296,-1.318c-0.193,-0.387 -0.469,-0.692 -0.829,-0.915c-0.356,-0.224 -0.777,-0.335 -1.262,-0.335c-0.534,0 -0.996,0.132 -1.386,0.397c-0.386,0.262 -0.684,0.603 -0.892,1.023c-0.208,0.421 -0.313,0.871 -0.313,1.352l0,0.773c0,0.659 0.114,1.218 0.341,1.676c0.231,0.455 0.551,0.801 0.961,1.04c0.409,0.235 0.884,0.352 1.426,0.352c0.352,0 0.67,-0.049 0.954,-0.147c0.288,-0.103 0.536,-0.254 0.745,-0.455c0.208,-0.205 0.369,-0.458 0.482,-0.761l1.296,0.363c-0.136,0.44 -0.366,0.826 -0.688,1.159c-0.322,0.33 -0.719,0.587 -1.193,0.773c-0.473,0.182 -1.005,0.273 -1.596,0.273zm13.949,-8.909l0,1.136l-4.523,0l0,-1.136l4.523,0zm-3.205,-2.091l1.341,0l0,8.318c0,0.379 0.055,0.663 0.165,0.852c0.113,0.186 0.257,0.311 0.431,0.375c0.179,0.061 0.366,0.091 0.563,0.091c0.148,0 0.269,-0.007 0.364,-0.023c0.094,-0.018 0.17,-0.034 0.227,-0.045l0.273,1.205c-0.091,0.034 -0.218,0.068 -0.381,0.102c-0.163,0.038 -0.369,0.057 -0.619,0.057c-0.379,0 -0.75,-0.082 -1.114,-0.245c-0.36,-0.163 -0.659,-0.411 -0.898,-0.744c-0.235,-0.333 -0.352,-0.754 -0.352,-1.261l0,-8.682zm5.222,10.818l0,-8.727l1.295,0l0,1.318l0.091,0c0.159,-0.432 0.447,-0.782 0.864,-1.051c0.416,-0.269 0.886,-0.404 1.409,-0.404c0.098,0 0.221,0.002 0.369,0.006c0.148,0.004 0.259,0.01 0.335,0.017l0,1.364c-0.045,-0.012 -0.149,-0.029 -0.312,-0.051c-0.159,-0.027 -0.328,-0.04 -0.506,-0.04c-0.424,0 -0.803,0.089 -1.136,0.267c-0.33,0.174 -0.591,0.417 -0.784,0.727c-0.19,0.307 -0.285,0.657 -0.285,1.051l0,5.523l-1.34,0zm8.521,0.205c-0.553,0 -1.055,-0.105 -1.506,-0.313c-0.451,-0.212 -0.809,-0.517 -1.074,-0.915c-0.265,-0.401 -0.397,-0.886 -0.397,-1.454c0,-0.5 0.098,-0.906 0.295,-1.216c0.197,-0.315 0.46,-0.561 0.79,-0.739c0.329,-0.178 0.693,-0.31 1.091,-0.398c0.401,-0.09 0.805,-0.162 1.21,-0.215c0.53,-0.069 0.96,-0.12 1.29,-0.154c0.333,-0.038 0.576,-0.1 0.727,-0.187c0.155,-0.087 0.233,-0.239 0.233,-0.455l0,-0.045c0,-0.561 -0.153,-0.997 -0.46,-1.307c-0.303,-0.311 -0.764,-0.466 -1.381,-0.466c-0.64,0 -1.142,0.14 -1.506,0.42c-0.363,0.281 -0.619,0.58 -0.767,0.898l-1.272,-0.454c0.227,-0.531 0.53,-0.944 0.909,-1.239c0.382,-0.299 0.799,-0.508 1.25,-0.625c0.454,-0.121 0.901,-0.182 1.341,-0.182c0.28,0 0.602,0.034 0.966,0.102c0.367,0.065 0.721,0.199 1.062,0.404c0.345,0.204 0.631,0.513 0.858,0.926c0.227,0.413 0.341,0.966 0.341,1.659l0,5.75l-1.341,0l0,-1.182l-0.068,0c-0.091,0.19 -0.243,0.392 -0.455,0.608c-0.212,0.216 -0.494,0.4 -0.846,0.551c-0.353,0.152 -0.783,0.228 -1.29,0.228zm0.204,-1.205c0.531,0 0.978,-0.104 1.341,-0.312c0.368,-0.209 0.644,-0.478 0.83,-0.807c0.189,-0.33 0.284,-0.676 0.284,-1.04l0,-1.227c-0.057,0.068 -0.182,0.13 -0.375,0.187c-0.189,0.053 -0.409,0.101 -0.659,0.142c-0.246,0.038 -0.487,0.072 -0.722,0.102c-0.231,0.027 -0.418,0.05 -0.562,0.069c-0.349,0.045 -0.674,0.119 -0.977,0.221c-0.3,0.099 -0.542,0.248 -0.728,0.449c-0.182,0.197 -0.272,0.466 -0.272,0.807c0,0.466 0.172,0.818 0.517,1.057c0.348,0.235 0.789,0.352 1.323,0.352zm9.539,1.182c-0.727,0 -1.37,-0.184 -1.926,-0.551c-0.557,-0.372 -0.993,-0.894 -1.307,-1.569c-0.315,-0.678 -0.472,-1.479 -0.472,-2.403c0,-0.917 0.157,-1.712 0.472,-2.386c0.314,-0.675 0.752,-1.195 1.312,-1.563c0.561,-0.367 1.209,-0.551 1.944,-0.551c0.568,0 1.017,0.095 1.346,0.284c0.333,0.186 0.587,0.398 0.761,0.637c0.179,0.234 0.317,0.428 0.415,0.579l0.114,0l0,-4.295l1.341,0l0,11.636l-1.296,0l0,-1.341l-0.159,0c-0.098,0.159 -0.238,0.36 -0.42,0.602c-0.182,0.239 -0.441,0.453 -0.779,0.642c-0.337,0.186 -0.786,0.279 -1.346,0.279zm0.182,-1.205c0.537,0 0.992,-0.14 1.363,-0.42c0.371,-0.284 0.654,-0.676 0.847,-1.176c0.193,-0.504 0.29,-1.086 0.29,-1.745c0,-0.651 -0.095,-1.221 -0.284,-1.71c-0.19,-0.492 -0.47,-0.875 -0.841,-1.148c-0.372,-0.276 -0.83,-0.414 -1.375,-0.414c-0.569,0 -1.042,0.145 -1.421,0.437c-0.375,0.288 -0.657,0.68 -0.846,1.176c-0.186,0.493 -0.279,1.046 -0.279,1.659c0,0.622 0.095,1.186 0.284,1.694c0.193,0.503 0.478,0.905 0.853,1.204c0.378,0.296 0.848,0.443 1.409,0.443zm6.46,1.023l0,-8.727l1.341,0l0,8.727l-1.341,0zm0.682,-10.182c-0.262,0 -0.487,-0.089 -0.676,-0.267c-0.186,-0.178 -0.279,-0.392 -0.279,-0.642c0,-0.25 0.093,-0.464 0.279,-0.642c0.189,-0.178 0.414,-0.267 0.676,-0.267c0.261,0 0.485,0.089 0.67,0.267c0.19,0.178 0.284,0.392 0.284,0.642c0,0.25 -0.094,0.464 -0.284,0.642c-0.185,0.178 -0.409,0.267 -0.67,0.267zm4.456,4.932l0,5.25l-1.341,0l0,-8.727l1.295,0l0,1.363l0.114,0c0.204,-0.443 0.515,-0.799 0.932,-1.068c0.416,-0.273 0.954,-0.409 1.613,-0.409c0.591,0 1.108,0.121 1.551,0.364c0.444,0.238 0.788,0.602 1.034,1.091c0.247,0.484 0.37,1.098 0.37,1.841l0,5.545l-1.341,0l0,-5.455c0,-0.685 -0.178,-1.219 -0.534,-1.602c-0.356,-0.386 -0.845,-0.579 -1.466,-0.579c-0.428,0 -0.811,0.092 -1.148,0.278c-0.333,0.186 -0.596,0.456 -0.79,0.813c-0.193,0.356 -0.289,0.787 -0.289,1.295zm11.541,8.705c-0.648,0 -1.205,-0.084 -1.671,-0.25c-0.466,-0.163 -0.854,-0.379 -1.164,-0.648c-0.307,-0.265 -0.552,-0.549 -0.733,-0.852l1.068,-0.75c0.121,0.159 0.274,0.34 0.46,0.545c0.186,0.208 0.439,0.388 0.761,0.54c0.326,0.155 0.752,0.233 1.279,0.233c0.704,0 1.286,-0.171 1.744,-0.512c0.458,-0.341 0.688,-0.875 0.688,-1.602l0,-1.773l-0.114,0c-0.098,0.159 -0.239,0.356 -0.42,0.591c-0.178,0.231 -0.436,0.438 -0.773,0.62c-0.334,0.178 -0.784,0.267 -1.352,0.267c-0.705,0 -1.338,-0.167 -1.898,-0.5c-0.557,-0.334 -0.998,-0.819 -1.324,-1.455c-0.322,-0.636 -0.483,-1.409 -0.483,-2.318c0,-0.894 0.157,-1.672 0.472,-2.335c0.314,-0.667 0.751,-1.182 1.312,-1.546c0.561,-0.367 1.208,-0.551 1.943,-0.551c0.568,0 1.019,0.095 1.353,0.284c0.337,0.186 0.594,0.398 0.772,0.637c0.182,0.234 0.322,0.428 0.421,0.579l0.136,0l0,-1.386l1.296,0l0,8.977c0,0.75 -0.171,1.36 -0.512,1.83c-0.337,0.473 -0.791,0.82 -1.363,1.039c-0.569,0.224 -1.201,0.336 -1.898,0.336zm-0.046,-4.796c0.538,0 0.993,-0.123 1.364,-0.369c0.371,-0.246 0.653,-0.601 0.847,-1.063c0.193,-0.462 0.289,-1.015 0.289,-1.659c0,-0.629 -0.094,-1.184 -0.284,-1.665c-0.189,-0.481 -0.469,-0.858 -0.841,-1.13c-0.371,-0.273 -0.829,-0.409 -1.375,-0.409c-0.568,0 -1.041,0.144 -1.42,0.431c-0.375,0.288 -0.657,0.675 -0.847,1.16c-0.185,0.484 -0.278,1.022 -0.278,1.613c0,0.606 0.095,1.142 0.284,1.608c0.193,0.462 0.477,0.826 0.852,1.091c0.379,0.261 0.849,0.392 1.409,0.392zm-103.603,21.523c-0.788,0 -1.48,-0.188 -2.074,-0.563c-0.591,-0.375 -1.053,-0.899 -1.387,-1.574c-0.329,-0.674 -0.494,-1.462 -0.494,-2.363c0,-0.909 0.165,-1.703 0.494,-2.381c0.334,-0.678 0.796,-1.204 1.387,-1.579c0.594,-0.375 1.286,-0.563 2.074,-0.563c0.788,0 1.477,0.188 2.068,0.563c0.595,0.375 1.057,0.901 1.386,1.579c0.334,0.678 0.5,1.472 0.5,2.381c0,0.901 -0.166,1.689 -0.5,2.363c-0.329,0.675 -0.791,1.199 -1.386,1.574c-0.591,0.375 -1.28,0.563 -2.068,0.563zm0,-1.205c0.598,0 1.091,-0.153 1.477,-0.46c0.386,-0.307 0.672,-0.71 0.858,-1.21c0.185,-0.5 0.278,-1.042 0.278,-1.625c0,-0.584 -0.093,-1.127 -0.278,-1.631c-0.186,-0.504 -0.472,-0.911 -0.858,-1.221c-0.386,-0.311 -0.879,-0.466 -1.477,-0.466c-0.599,0 -1.091,0.155 -1.478,0.466c-0.386,0.31 -0.672,0.717 -0.858,1.221c-0.185,0.504 -0.278,1.047 -0.278,1.631c0,0.583 0.093,1.125 0.278,1.625c0.186,0.5 0.472,0.903 0.858,1.21c0.387,0.307 0.879,0.46 1.478,0.46zm7.342,-4.227l0,5.25l-1.341,0l0,-8.727l1.296,0l0,1.363l0.113,0c0.205,-0.443 0.515,-0.799 0.932,-1.068c0.417,-0.273 0.955,-0.409 1.614,-0.409c0.591,0 1.108,0.121 1.551,0.364c0.443,0.238 0.788,0.602 1.034,1.091c0.246,0.484 0.369,1.098 0.369,1.841l0,5.545l-1.341,0l0,-5.455c0,-0.685 -0.178,-1.219 -0.534,-1.602c-0.356,-0.386 -0.845,-0.579 -1.466,-0.579c-0.428,0 -0.81,0.092 -1.147,0.278c-0.334,0.186 -0.597,0.456 -0.79,0.813c-0.193,0.356 -0.29,0.787 -0.29,1.295zm12.439,5.25l0,-11.636l4.364,0c0.893,0 1.643,0.155 2.25,0.466c0.609,0.31 1.07,0.746 1.38,1.306c0.315,0.557 0.472,1.207 0.472,1.949c0,0.746 -0.159,1.394 -0.477,1.943c-0.315,0.546 -0.779,0.968 -1.392,1.267c-0.614,0.296 -1.368,0.444 -2.262,0.444l-3.108,0l0,-1.75l2.824,0c0.523,0 0.951,-0.072 1.284,-0.216c0.333,-0.148 0.58,-0.362 0.739,-0.642c0.163,-0.284 0.244,-0.633 0.244,-1.046c0,-0.413 -0.081,-0.765 -0.244,-1.057c-0.163,-0.295 -0.411,-0.519 -0.745,-0.67c-0.333,-0.155 -0.763,-0.233 -1.289,-0.233l-1.932,0l0,9.875l-2.108,0zm6.011,-5.273l2.881,5.273l-2.352,0l-2.83,-5.273l2.301,0zm6.816,5.449c-0.553,0 -1.052,-0.098 -1.495,-0.295c-0.439,-0.201 -0.788,-0.497 -1.045,-0.887c-0.254,-0.39 -0.381,-0.871 -0.381,-1.443c0,-0.492 0.091,-0.899 0.273,-1.221c0.182,-0.322 0.43,-0.58 0.744,-0.773c0.315,-0.193 0.669,-0.339 1.063,-0.438c0.397,-0.102 0.808,-0.176 1.233,-0.221c0.511,-0.053 0.926,-0.101 1.244,-0.142c0.318,-0.046 0.549,-0.114 0.693,-0.205c0.148,-0.095 0.222,-0.24 0.222,-0.437l0,-0.034c0,-0.428 -0.127,-0.76 -0.381,-0.995c-0.254,-0.235 -0.619,-0.352 -1.097,-0.352c-0.503,0 -0.903,0.11 -1.198,0.329c-0.292,0.22 -0.489,0.48 -0.591,0.779l-1.921,-0.273c0.152,-0.53 0.402,-0.973 0.75,-1.329c0.349,-0.36 0.775,-0.629 1.279,-0.807c0.503,-0.182 1.06,-0.273 1.67,-0.273c0.421,0 0.839,0.049 1.256,0.148c0.416,0.098 0.797,0.261 1.142,0.488c0.345,0.224 0.621,0.529 0.829,0.915c0.213,0.387 0.319,0.87 0.319,1.449l0,5.841l-1.978,0l0,-1.199l-0.068,0c-0.125,0.243 -0.301,0.47 -0.528,0.682c-0.224,0.208 -0.506,0.377 -0.847,0.506c-0.337,0.125 -0.733,0.187 -1.187,0.187zm0.534,-1.511c0.413,0 0.771,-0.082 1.074,-0.245c0.303,-0.166 0.536,-0.386 0.698,-0.659c0.167,-0.272 0.25,-0.57 0.25,-0.892l0,-1.028c-0.064,0.053 -0.174,0.102 -0.329,0.148c-0.152,0.045 -0.322,0.085 -0.511,0.119c-0.19,0.034 -0.377,0.064 -0.563,0.091c-0.186,0.026 -0.347,0.049 -0.483,0.068c-0.307,0.042 -0.581,0.11 -0.824,0.205c-0.242,0.094 -0.434,0.227 -0.574,0.397c-0.14,0.167 -0.21,0.383 -0.21,0.648c0,0.379 0.138,0.665 0.415,0.858c0.276,0.193 0.629,0.29 1.057,0.29zm7.108,4.591c-0.281,0 -0.54,-0.023 -0.779,-0.068c-0.235,-0.042 -0.422,-0.093 -0.562,-0.154l0.477,-1.596c0.447,0.128 0.822,0.149 1.125,0.062c0.307,-0.083 0.559,-0.366 0.756,-0.847l0.176,-0.471l-3.165,-8.909l2.182,0l2.011,6.591l0.091,0l2.017,-6.591l2.199,0.011l-3.506,9.773c-0.162,0.454 -0.378,0.846 -0.647,1.176c-0.269,0.329 -0.599,0.581 -0.989,0.756c-0.386,0.178 -0.848,0.267 -1.386,0.267zm10.897,-3.103c-0.685,0 -1.299,-0.176 -1.841,-0.528c-0.541,-0.352 -0.969,-0.864 -1.284,-1.534c-0.314,-0.671 -0.471,-1.485 -0.471,-2.443c0,-0.97 0.159,-1.788 0.477,-2.455c0.322,-0.67 0.756,-1.176 1.301,-1.517c0.546,-0.345 1.154,-0.517 1.824,-0.517c0.511,0 0.932,0.087 1.261,0.261c0.33,0.171 0.591,0.377 0.785,0.62c0.193,0.238 0.342,0.464 0.448,0.676l0.086,0l0,-4.352l2.062,0l0,11.636l-2.023,0l0,-1.375l-0.125,0c-0.106,0.212 -0.259,0.437 -0.46,0.676c-0.201,0.235 -0.466,0.436 -0.795,0.602c-0.33,0.167 -0.745,0.25 -1.245,0.25zm0.574,-1.687c0.436,0 0.807,-0.118 1.114,-0.352c0.307,-0.239 0.54,-0.57 0.699,-0.995c0.159,-0.424 0.238,-0.918 0.238,-1.483c0,-0.564 -0.079,-1.055 -0.238,-1.471c-0.156,-0.417 -0.387,-0.741 -0.693,-0.972c-0.303,-0.231 -0.677,-0.346 -1.12,-0.346c-0.458,0 -0.841,0.119 -1.147,0.358c-0.307,0.238 -0.538,0.568 -0.694,0.988c-0.155,0.421 -0.233,0.902 -0.233,1.443c0,0.546 0.078,1.033 0.233,1.461c0.159,0.424 0.392,0.759 0.699,1.005c0.311,0.243 0.691,0.364 1.142,0.364zm6.266,1.534l0,-8.727l2.057,0l0,8.727l-2.057,0zm1.034,-9.966c-0.33,0 -0.612,-0.108 -0.847,-0.324c-0.231,-0.219 -0.346,-0.483 -0.346,-0.79c0,-0.31 0.117,-0.573 0.352,-0.789c0.235,-0.22 0.515,-0.33 0.841,-0.33c0.326,0 0.604,0.11 0.835,0.33c0.235,0.216 0.352,0.479 0.352,0.789c0,0.307 -0.117,0.571 -0.352,0.79c-0.231,0.216 -0.509,0.324 -0.835,0.324zm8.7,6.296l0,-5.057l2.057,0l0,8.727l-1.994,0l0,-1.551l-0.091,0c-0.197,0.488 -0.521,0.888 -0.972,1.199c-0.447,0.31 -0.998,0.466 -1.653,0.466c-0.572,0 -1.078,-0.127 -1.517,-0.381c-0.436,-0.258 -0.777,-0.631 -1.023,-1.119c-0.246,-0.493 -0.369,-1.087 -0.369,-1.784l0,-5.557l2.057,0l0,5.238c0,0.553 0.151,0.993 0.454,1.319c0.303,0.325 0.701,0.488 1.193,0.488c0.303,0 0.597,-0.074 0.881,-0.221c0.284,-0.148 0.517,-0.368 0.699,-0.659c0.185,-0.296 0.278,-0.665 0.278,-1.108zm4.172,3.67l0,-8.727l1.966,0l0,1.483l0.102,0c0.182,-0.5 0.483,-0.89 0.904,-1.171c0.42,-0.284 0.922,-0.426 1.505,-0.426c0.591,0 1.089,0.144 1.495,0.432c0.409,0.284 0.697,0.672 0.863,1.165l0.091,0c0.193,-0.485 0.519,-0.872 0.978,-1.159c0.462,-0.292 1.009,-0.438 1.642,-0.438c0.803,0 1.458,0.254 1.965,0.761c0.508,0.508 0.762,1.249 0.762,2.222l0,5.858l-2.063,0l0,-5.54c0,-0.541 -0.144,-0.937 -0.431,-1.187c-0.288,-0.254 -0.641,-0.381 -1.057,-0.381c-0.496,0 -0.885,0.155 -1.165,0.466c-0.277,0.307 -0.415,0.706 -0.415,1.199l0,5.443l-2.017,0l0,-5.625c0,-0.451 -0.136,-0.811 -0.409,-1.08c-0.269,-0.268 -0.621,-0.403 -1.057,-0.403c-0.295,0 -0.564,0.076 -0.807,0.227c-0.242,0.148 -0.435,0.358 -0.579,0.631c-0.144,0.269 -0.216,0.583 -0.216,0.943l0,5.307l-2.057,0zm16.28,-3.273l0,-0.068c0.008,-0.723 0.083,-1.299 0.227,-1.727c0.144,-0.428 0.349,-0.775 0.614,-1.04c0.265,-0.265 0.583,-0.509 0.954,-0.733c0.224,-0.136 0.425,-0.297 0.603,-0.483c0.178,-0.189 0.318,-0.407 0.42,-0.653c0.106,-0.246 0.159,-0.519 0.159,-0.818c0,-0.372 -0.087,-0.694 -0.261,-0.966c-0.174,-0.273 -0.407,-0.483 -0.699,-0.631c-0.292,-0.148 -0.616,-0.222 -0.972,-0.222c-0.31,0 -0.609,0.065 -0.897,0.194c-0.288,0.128 -0.529,0.331 -0.722,0.608c-0.193,0.276 -0.305,0.638 -0.335,1.085l-1.432,0c0.03,-0.644 0.197,-1.195 0.5,-1.654c0.307,-0.458 0.71,-0.808 1.21,-1.051c0.504,-0.242 1.063,-0.363 1.676,-0.363c0.667,0 1.247,0.132 1.739,0.397c0.496,0.265 0.879,0.629 1.148,1.091c0.273,0.462 0.409,0.989 0.409,1.58c0,0.416 -0.065,0.793 -0.193,1.13c-0.125,0.338 -0.307,0.639 -0.546,0.904c-0.235,0.265 -0.519,0.5 -0.852,0.704c-0.333,0.209 -0.6,0.428 -0.801,0.659c-0.201,0.228 -0.347,0.499 -0.438,0.813c-0.091,0.314 -0.14,0.706 -0.147,1.176l0,0.068l-1.364,0zm0.727,3.364c-0.28,0 -0.521,-0.1 -0.721,-0.301c-0.201,-0.201 -0.301,-0.442 -0.301,-0.722c0,-0.28 0.1,-0.521 0.301,-0.721c0.2,-0.201 0.441,-0.302 0.721,-0.302c0.281,0 0.521,0.101 0.722,0.302c0.201,0.2 0.301,0.441 0.301,0.721c0,0.186 -0.047,0.356 -0.142,0.512c-0.091,0.155 -0.214,0.28 -0.369,0.375c-0.152,0.09 -0.322,0.136 -0.512,0.136z" opacity="0.75"/>
        <path id="svg_2" fill="url(#paint0_linear)" d="m40.582,34.027l0,-16.388l2.125,-1.22l0,18.828l-20.354,11.753l-20.353,-11.753l0,-23.494l20.353,-11.753l16.125,9.313l-2.115,1.22l-14.01,-8.093l-18.238,10.533l0,21.054l18.238,10.523l18.229,-10.523zm-0.02,-18.625l-2.105,-1.169l0,-2.47l2.105,-1.22l2.104,1.22l0,2.47l-2.104,1.169zm-8.815,1.854l-8.451,7.769l-2.735,-3.04c-0.17,-0.188 -0.457,-0.2 -0.642,-0.034l-9.615,8.647c-0.045,0.041 -0.072,0.097 -0.075,0.157c-0.003,0.06 0.018,0.119 0.058,0.164l1.209,1.351c0.083,0.092 0.228,0.1 0.32,0.017l8.27,-7.433l2.733,3.04c0.17,0.186 0.456,0.201 0.642,0.034l9.807,-8.983l-1.521,-1.689z" clip-rule="evenodd" fill-rule="evenodd"/>
        <path id="svg_3" fill="#5AC4BE" d="m127.428,399.672c-0.04,-0.372 -0.207,-0.662 -0.503,-0.869c-0.293,-0.208 -0.673,-0.312 -1.142,-0.312c-0.33,0 -0.612,0.05 -0.848,0.15c-0.236,0.099 -0.416,0.234 -0.541,0.404c-0.125,0.171 -0.189,0.366 -0.192,0.584c0,0.182 0.041,0.34 0.124,0.473c0.085,0.134 0.2,0.247 0.345,0.341c0.145,0.091 0.305,0.168 0.481,0.23c0.176,0.063 0.354,0.115 0.533,0.158l0.818,0.205c0.33,0.076 0.647,0.18 0.95,0.311c0.307,0.13 0.581,0.295 0.823,0.494c0.244,0.199 0.437,0.439 0.579,0.72c0.143,0.281 0.214,0.611 0.214,0.989c0,0.511 -0.131,0.961 -0.393,1.351c-0.261,0.386 -0.639,0.688 -1.133,0.907c-0.492,0.216 -1.087,0.324 -1.786,0.324c-0.679,0 -1.268,-0.105 -1.768,-0.315c-0.497,-0.21 -0.886,-0.517 -1.168,-0.921c-0.278,-0.403 -0.429,-0.895 -0.451,-1.474l1.555,0c0.023,0.304 0.117,0.557 0.281,0.758c0.165,0.202 0.38,0.353 0.644,0.452c0.267,0.1 0.565,0.149 0.895,0.149c0.343,0 0.645,-0.051 0.903,-0.153c0.261,-0.105 0.466,-0.25 0.614,-0.435c0.147,-0.187 0.223,-0.406 0.226,-0.656c-0.003,-0.227 -0.07,-0.415 -0.201,-0.563c-0.13,-0.15 -0.314,-0.275 -0.549,-0.375c-0.233,-0.102 -0.506,-0.193 -0.819,-0.272l-0.993,-0.256c-0.718,-0.185 -1.286,-0.464 -1.704,-0.839c-0.415,-0.378 -0.622,-0.88 -0.622,-1.505c0,-0.514 0.139,-0.964 0.417,-1.351c0.282,-0.386 0.664,-0.686 1.147,-0.899c0.483,-0.216 1.03,-0.324 1.64,-0.324c0.62,0 1.162,0.108 1.628,0.324c0.469,0.213 0.837,0.51 1.104,0.891c0.267,0.378 0.405,0.812 0.413,1.304l-1.521,0zm3.05,6.328l0,-8.727l5.676,0l0,1.325l-4.095,0l0,2.369l3.801,0l0,1.326l-3.801,0l0,2.382l4.129,0l0,1.325l-5.71,0zm7.289,0l0,-8.727l5.676,0l0,1.325l-4.095,0l0,2.369l3.801,0l0,1.326l-3.801,0l0,2.382l4.129,0l0,1.325l-5.71,0zm10.266,0l0,-8.727l1.581,0l0,3.694l4.044,0l0,-3.694l1.585,0l0,8.727l-1.585,0l0,-3.707l-4.044,0l0,3.707l-1.581,0zm16.728,-4.364c0,0.941 -0.176,1.746 -0.529,2.417c-0.349,0.667 -0.826,1.179 -1.432,1.534c-0.602,0.355 -1.285,0.532 -2.049,0.532c-0.764,0 -1.449,-0.177 -2.054,-0.532c-0.603,-0.358 -1.08,-0.871 -1.432,-1.539c-0.35,-0.67 -0.524,-1.474 -0.524,-2.412c0,-0.94 0.174,-1.744 0.524,-2.412c0.352,-0.67 0.829,-1.183 1.432,-1.538c0.605,-0.355 1.29,-0.533 2.054,-0.533c0.764,0 1.447,0.178 2.049,0.533c0.606,0.355 1.083,0.868 1.432,1.538c0.353,0.668 0.529,1.472 0.529,2.412zm-1.59,0c0,-0.662 -0.104,-1.22 -0.311,-1.674c-0.204,-0.458 -0.489,-0.803 -0.852,-1.036c-0.364,-0.236 -0.783,-0.354 -1.257,-0.354c-0.475,0 -0.894,0.118 -1.257,0.354c-0.364,0.233 -0.65,0.578 -0.857,1.036c-0.204,0.454 -0.307,1.012 -0.307,1.674c0,0.662 0.103,1.222 0.307,1.679c0.207,0.455 0.493,0.8 0.857,1.036c0.363,0.233 0.782,0.349 1.257,0.349c0.474,0 0.893,-0.116 1.257,-0.349c0.363,-0.236 0.648,-0.581 0.852,-1.036c0.207,-0.457 0.311,-1.017 0.311,-1.679zm4.698,4.364l-2.463,-8.727l1.701,0l1.572,6.413l0.081,0l1.679,-6.413l1.547,0l1.683,6.417l0.077,0l1.572,-6.417l1.7,0l-2.463,8.727l-1.559,0l-1.747,-6.124l-0.069,0l-1.751,6.124l-1.56,0zm14.803,-8.727l0,8.727l-1.581,0l0,-8.727l1.581,0zm1.329,1.325l0,-1.325l6.963,0l0,1.325l-2.698,0l0,7.402l-1.568,0l0,-7.402l-2.697,0zm13.118,7.402l-2.463,-8.727l1.701,0l1.572,6.413l0.081,0l1.679,-6.413l1.547,0l1.683,6.417l0.077,0l1.572,-6.417l1.7,0l-2.463,8.727l-1.559,0l-1.747,-6.124l-0.069,0l-1.751,6.124l-1.56,0zm17.575,-4.364c0,0.941 -0.176,1.746 -0.528,2.417c-0.35,0.667 -0.827,1.179 -1.432,1.534c-0.602,0.355 -1.285,0.532 -2.05,0.532c-0.764,0 -1.449,-0.177 -2.054,-0.532c-0.602,-0.358 -1.079,-0.871 -1.431,-1.539c-0.35,-0.67 -0.525,-1.474 -0.525,-2.412c0,-0.94 0.175,-1.744 0.525,-2.412c0.352,-0.67 0.829,-1.183 1.431,-1.538c0.605,-0.355 1.29,-0.533 2.054,-0.533c0.765,0 1.448,0.178 2.05,0.533c0.605,0.355 1.082,0.868 1.432,1.538c0.352,0.668 0.528,1.472 0.528,2.412zm-1.589,0c0,-0.662 -0.104,-1.22 -0.311,-1.674c-0.205,-0.458 -0.489,-0.803 -0.853,-1.036c-0.363,-0.236 -0.782,-0.354 -1.257,-0.354c-0.474,0 -0.893,0.118 -1.257,0.354c-0.363,0.233 -0.649,0.578 -0.856,1.036c-0.205,0.454 -0.307,1.012 -0.307,1.674c0,0.662 0.102,1.222 0.307,1.679c0.207,0.455 0.493,0.8 0.856,1.036c0.364,0.233 0.783,0.349 1.257,0.349c0.475,0 0.894,-0.116 1.257,-0.349c0.364,-0.236 0.648,-0.581 0.853,-1.036c0.207,-0.457 0.311,-1.017 0.311,-1.679zm3.084,4.364l0,-8.727l3.273,0c0.67,0 1.233,0.116 1.687,0.349c0.458,0.233 0.803,0.56 1.036,0.98c0.235,0.418 0.353,0.905 0.353,1.462c0,0.56 -0.119,1.045 -0.358,1.457c-0.235,0.409 -0.583,0.726 -1.044,0.951c-0.46,0.221 -1.025,0.332 -1.696,0.332l-2.331,0l0,-1.313l2.118,0c0.392,0 0.713,-0.054 0.963,-0.161c0.25,-0.111 0.435,-0.272 0.554,-0.482c0.122,-0.213 0.184,-0.474 0.184,-0.784c0,-0.31 -0.062,-0.574 -0.184,-0.793c-0.122,-0.221 -0.308,-0.389 -0.558,-0.503c-0.25,-0.116 -0.572,-0.174 -0.967,-0.174l-1.449,0l0,7.406l-1.581,0zm4.508,-3.955l2.161,3.955l-1.764,0l-2.122,-3.955l1.725,0zm3.297,3.955l0,-8.727l1.581,0l0,4.01l0.106,0l3.405,-4.01l1.93,0l-3.375,3.916l3.405,4.811l-1.9,0l-2.604,-3.741l-0.967,1.142l0,2.599l-1.581,0zm12.817,-6.328c-0.04,-0.372 -0.208,-0.662 -0.503,-0.869c-0.293,-0.208 -0.673,-0.312 -1.142,-0.312c-0.33,0 -0.612,0.05 -0.848,0.15c-0.236,0.099 -0.416,0.234 -0.541,0.404c-0.125,0.171 -0.189,0.366 -0.192,0.584c0,0.182 0.041,0.34 0.123,0.473c0.086,0.134 0.201,0.247 0.346,0.341c0.145,0.091 0.305,0.168 0.481,0.23c0.176,0.063 0.354,0.115 0.533,0.158l0.818,0.205c0.33,0.076 0.646,0.18 0.95,0.311c0.307,0.13 0.581,0.295 0.823,0.494c0.244,0.199 0.437,0.439 0.579,0.72c0.142,0.281 0.213,0.611 0.213,0.989c0,0.511 -0.13,0.961 -0.392,1.351c-0.261,0.386 -0.639,0.688 -1.133,0.907c-0.492,0.216 -1.087,0.324 -1.786,0.324c-0.679,0 -1.268,-0.105 -1.768,-0.315c-0.497,-0.21 -0.887,-0.517 -1.168,-0.921c-0.278,-0.403 -0.429,-0.895 -0.452,-1.474l1.556,0c0.023,0.304 0.116,0.557 0.281,0.758c0.165,0.202 0.379,0.353 0.644,0.452c0.267,0.1 0.565,0.149 0.894,0.149c0.344,0 0.645,-0.051 0.904,-0.153c0.261,-0.105 0.466,-0.25 0.614,-0.435c0.147,-0.187 0.223,-0.406 0.225,-0.656c-0.002,-0.227 -0.069,-0.415 -0.2,-0.563c-0.131,-0.15 -0.314,-0.275 -0.55,-0.375c-0.233,-0.102 -0.505,-0.193 -0.818,-0.272l-0.993,-0.256c-0.718,-0.185 -1.287,-0.464 -1.704,-0.839c-0.415,-0.378 -0.622,-0.88 -0.622,-1.505c0,-0.514 0.139,-0.964 0.417,-1.351c0.281,-0.386 0.664,-0.686 1.147,-0.899c0.482,-0.216 1.029,-0.324 1.64,-0.324c0.619,0 1.162,0.108 1.628,0.324c0.469,0.213 0.837,0.51 1.104,0.891c0.267,0.378 0.405,0.812 0.413,1.304l-1.521,0z"/>
    </g>
</svg>
